<svg xmlns="http://www.w3.org/2000/svg"  viewBox="0 0 22 22.969" width="24px" height="24px"><path d="M 9.691,14.8 6.411,11.488 9.6,8.3 C 9.336,8.026 9.066,7.74 8.8,7.44 A 5.857,5.857 0 0 1 7.263,3.807 l -6.97,6.97 a 1,1 0 0 0 0,1.414 l 10.777,10.778 0.7,-0.847 a 4.02,4.02 0 0 0 -0.061,-5.27 C 10.755,15.775 9.7,14.807 9.691,14.8 Z m 2.617,-6.631 3.281,3.311 -3.184,3.185 c 0.264,0.273 0.534,0.56 0.8,0.859 a 5.866,5.866 0 0 1 1.531,3.638 l 6.971,-6.971 a 1,1 0 0 0 0,-1.414 L 10.93,0 10.23,0.847 a 4.02,4.02 0 0 0 0.062,5.27 c 0.953,1.076 2.008,2.045 2.016,2.052 z"/></svg>